<svg viewBox="0 0 100 100" xmlns="http://www.w3.org/2000/svg"><circle cx="50" cy="50" fill="#2a5ce4" r="48"/><path d="m50 1c-27.062 0-49 21.938-49 49s21.938 49 49 49 49-21.938 49-49-21.938-49-49-49zm29.099 78.099c-3.782 3.782-8.184 6.75-13.083 8.823-1.245.526-2.509.989-3.79 1.387v-7.344c0-3.86-1.324-6.699-3.972-8.517 1.659-.16 3.182-.383 4.57-.67s2.855-.702 4.402-1.245 2.935-1.189 4.163-1.938c1.228-.75 2.409-1.723 3.541-2.919s2.082-2.552 2.847-4.067 1.372-3.334 1.818-5.455.67-4.458.67-7.01c0-4.945-1.611-9.155-4.833-12.633 1.467-3.828 1.308-7.991-.478-12.489l-1.197-.143c-.829-.096-2.321.255-4.474 1.053s-4.57 2.105-7.249 3.924c-3.797-1.053-7.736-1.579-11.82-1.579-4.115 0-8.039.526-11.772 1.579-1.69-1.149-3.294-2.097-4.809-2.847s-2.727-1.26-3.637-1.532c-.909-.271-1.754-.439-2.536-.503s-1.284-.079-1.507-.048-.383.064-.478.096c-1.787 4.53-1.946 8.694-.478 12.489-3.222 3.477-4.833 7.688-4.833 12.633 0 2.552.223 4.889.67 7.01s1.053 3.94 1.818 5.455 1.715 2.871 2.847 4.067 2.313 2.169 3.541 2.919c1.228.751 2.616 1.396 4.163 1.938 1.547.543 3.014.957 4.402 1.245 1.388.287 2.911.511 4.57.67-2.616 1.787-3.924 4.626-3.924 8.517v7.487c-1.445-.43-2.869-.938-4.268-1.53-4.899-2.073-9.301-5.041-13.083-8.823s-6.75-8.184-8.823-13.083c-2.143-5.068-3.23-10.456-3.23-16.016s1.087-10.948 3.231-16.016c2.073-4.899 5.041-9.301 8.823-13.083s8.184-6.75 13.083-8.823c5.068-2.144 10.456-3.231 16.016-3.231s10.948 1.087 16.016 3.231c4.9 2.073 9.301 5.041 13.083 8.823s6.75 8.184 8.823 13.083c2.143 5.069 3.23 10.457 3.23 16.016s-1.087 10.948-3.231 16.016c-2.073 4.899-5.041 9.301-8.822 13.083z" fill="#f7f7f7" transform="matrix(.5 0 0 .5 25 25)"/></svg>