<svg viewBox="0 0 100 100" xmlns="http://www.w3.org/2000/svg"><circle cx="50" cy="50" fill="#2a5ce4" r="48"/><path d="m82.539 1h-65.078c-9.053 0-16.461 7.408-16.461 16.461v65.078c0 9.053 7.408 16.461 16.461 16.461h65.078c9.053 0 16.461-7.408 16.461-16.461v-65.078c0-9.053-7.408-16.461-16.461-16.461zm-44.789 79.625h-12.25v-42.875h12.25zm-6.125-49c-3.383 0-6.125-2.742-6.125-6.125s2.742-6.125 6.125-6.125 6.125 2.742 6.125 6.125-2.742 6.125-6.125 6.125zm49 49h-12.25v-24.5c0-3.383-2.742-6.125-6.125-6.125s-6.125 2.742-6.125 6.125v24.5h-12.25v-42.875h12.25v7.606c2.526-3.47 6.389-7.606 10.719-7.606 7.612 0 13.782 6.856 13.782 15.312z" fill="#f7f7f7" transform="matrix(.5 0 0 .5 25 25)"/></svg>